<mxfile host="app.diagrams.net" modified="2024-05-28T04:10:47.566Z" agent="Mozilla/5.0 (X11; Linux x86_64) AppleWebKit/537.36 (KHTML, like Gecko) Chrome/125.0.0.0 Safari/537.36" etag="yD6llredxOtXsHwyXqas" version="23.1.8" type="github">
  <diagram name="Page-1" id="6WTEVgZgzbK2yXOucDcC">
    <mxGraphModel dx="2035" dy="1572" grid="1" gridSize="10" guides="1" tooltips="1" connect="1" arrows="1" fold="1" page="1" pageScale="1" pageWidth="850" pageHeight="1100" math="0" shadow="0">
      <root>
        <mxCell id="0" />
        <mxCell id="1" parent="0" />
        <mxCell id="Pe_V_5DJ8t9zyu-0Aj7v-29" value="" style="rounded=0;orthogonalLoop=1;jettySize=auto;html=1;exitX=1;exitY=0.5;exitDx=0;exitDy=0;exitPerimeter=0;endArrow=none;endFill=0;" edge="1" parent="1" source="Pe_V_5DJ8t9zyu-0Aj7v-46" target="Pe_V_5DJ8t9zyu-0Aj7v-28">
          <mxGeometry relative="1" as="geometry">
            <mxPoint x="-600" y="-520" as="sourcePoint" />
          </mxGeometry>
        </mxCell>
        <mxCell id="Pe_V_5DJ8t9zyu-0Aj7v-31" value="" style="edgeStyle=orthogonalEdgeStyle;rounded=0;orthogonalLoop=1;jettySize=auto;html=1;endArrow=none;endFill=0;" edge="1" parent="1" target="Pe_V_5DJ8t9zyu-0Aj7v-30">
          <mxGeometry relative="1" as="geometry">
            <mxPoint x="-560" y="-480" as="sourcePoint" />
          </mxGeometry>
        </mxCell>
        <mxCell id="Pe_V_5DJ8t9zyu-0Aj7v-33" value="" style="rounded=0;orthogonalLoop=1;jettySize=auto;html=1;endArrow=none;endFill=0;" edge="1" parent="1" target="Pe_V_5DJ8t9zyu-0Aj7v-32">
          <mxGeometry relative="1" as="geometry">
            <mxPoint x="-560" y="-480" as="sourcePoint" />
          </mxGeometry>
        </mxCell>
        <mxCell id="Pe_V_5DJ8t9zyu-0Aj7v-57" value="" style="edgeStyle=orthogonalEdgeStyle;rounded=0;orthogonalLoop=1;jettySize=auto;html=1;" edge="1" parent="1" source="Pe_V_5DJ8t9zyu-0Aj7v-28">
          <mxGeometry relative="1" as="geometry">
            <mxPoint x="-299" y="-600" as="targetPoint" />
          </mxGeometry>
        </mxCell>
        <mxCell id="Pe_V_5DJ8t9zyu-0Aj7v-62" style="edgeStyle=orthogonalEdgeStyle;rounded=0;orthogonalLoop=1;jettySize=auto;html=1;" edge="1" parent="1" source="Pe_V_5DJ8t9zyu-0Aj7v-28">
          <mxGeometry relative="1" as="geometry">
            <mxPoint x="-300" y="-570" as="targetPoint" />
          </mxGeometry>
        </mxCell>
        <mxCell id="Pe_V_5DJ8t9zyu-0Aj7v-63" style="edgeStyle=orthogonalEdgeStyle;rounded=0;orthogonalLoop=1;jettySize=auto;html=1;" edge="1" parent="1" source="Pe_V_5DJ8t9zyu-0Aj7v-28">
          <mxGeometry relative="1" as="geometry">
            <mxPoint x="-300" y="-630" as="targetPoint" />
          </mxGeometry>
        </mxCell>
        <mxCell id="Pe_V_5DJ8t9zyu-0Aj7v-70" style="edgeStyle=orthogonalEdgeStyle;rounded=0;orthogonalLoop=1;jettySize=auto;html=1;entryX=0.5;entryY=0;entryDx=0;entryDy=0;startArrow=block;startFill=1;dashed=1;strokeWidth=1;" edge="1" parent="1" source="Pe_V_5DJ8t9zyu-0Aj7v-28" target="Pe_V_5DJ8t9zyu-0Aj7v-30">
          <mxGeometry relative="1" as="geometry" />
        </mxCell>
        <mxCell id="Pe_V_5DJ8t9zyu-0Aj7v-28" value="Template Management" style="whiteSpace=wrap;html=1;aspect=fixed;" vertex="1" parent="1">
          <mxGeometry x="-439" y="-640" width="80" height="80" as="geometry" />
        </mxCell>
        <mxCell id="Pe_V_5DJ8t9zyu-0Aj7v-50" value="" style="edgeStyle=orthogonalEdgeStyle;rounded=0;orthogonalLoop=1;jettySize=auto;html=1;" edge="1" parent="1" source="Pe_V_5DJ8t9zyu-0Aj7v-30" target="Pe_V_5DJ8t9zyu-0Aj7v-49">
          <mxGeometry relative="1" as="geometry" />
        </mxCell>
        <mxCell id="Pe_V_5DJ8t9zyu-0Aj7v-53" style="edgeStyle=orthogonalEdgeStyle;rounded=0;orthogonalLoop=1;jettySize=auto;html=1;entryX=0;entryY=0.75;entryDx=0;entryDy=0;" edge="1" parent="1" source="Pe_V_5DJ8t9zyu-0Aj7v-30" target="Pe_V_5DJ8t9zyu-0Aj7v-51">
          <mxGeometry relative="1" as="geometry" />
        </mxCell>
        <mxCell id="Pe_V_5DJ8t9zyu-0Aj7v-55" style="edgeStyle=orthogonalEdgeStyle;rounded=0;orthogonalLoop=1;jettySize=auto;html=1;" edge="1" parent="1" source="Pe_V_5DJ8t9zyu-0Aj7v-30" target="Pe_V_5DJ8t9zyu-0Aj7v-52">
          <mxGeometry relative="1" as="geometry" />
        </mxCell>
        <mxCell id="Pe_V_5DJ8t9zyu-0Aj7v-71" style="edgeStyle=orthogonalEdgeStyle;rounded=0;orthogonalLoop=1;jettySize=auto;html=1;entryX=0.5;entryY=0;entryDx=0;entryDy=0;dashed=1;endArrow=block;endFill=1;startArrow=block;startFill=1;" edge="1" parent="1" source="Pe_V_5DJ8t9zyu-0Aj7v-30" target="Pe_V_5DJ8t9zyu-0Aj7v-32">
          <mxGeometry relative="1" as="geometry" />
        </mxCell>
        <mxCell id="Pe_V_5DJ8t9zyu-0Aj7v-30" value="Identity Management" style="whiteSpace=wrap;html=1;aspect=fixed;" vertex="1" parent="1">
          <mxGeometry x="-439" y="-520" width="80" height="80" as="geometry" />
        </mxCell>
        <mxCell id="Pe_V_5DJ8t9zyu-0Aj7v-67" style="edgeStyle=orthogonalEdgeStyle;rounded=0;orthogonalLoop=1;jettySize=auto;html=1;" edge="1" parent="1" source="Pe_V_5DJ8t9zyu-0Aj7v-32">
          <mxGeometry relative="1" as="geometry">
            <mxPoint x="-300" y="-360" as="targetPoint" />
          </mxGeometry>
        </mxCell>
        <mxCell id="Pe_V_5DJ8t9zyu-0Aj7v-68" style="edgeStyle=orthogonalEdgeStyle;rounded=0;orthogonalLoop=1;jettySize=auto;html=1;" edge="1" parent="1" source="Pe_V_5DJ8t9zyu-0Aj7v-32">
          <mxGeometry relative="1" as="geometry">
            <mxPoint x="-300" y="-390" as="targetPoint" />
          </mxGeometry>
        </mxCell>
        <mxCell id="Pe_V_5DJ8t9zyu-0Aj7v-69" style="edgeStyle=orthogonalEdgeStyle;rounded=0;orthogonalLoop=1;jettySize=auto;html=1;entryX=0;entryY=0.5;entryDx=0;entryDy=0;" edge="1" parent="1" source="Pe_V_5DJ8t9zyu-0Aj7v-32" target="Pe_V_5DJ8t9zyu-0Aj7v-66">
          <mxGeometry relative="1" as="geometry" />
        </mxCell>
        <mxCell id="Pe_V_5DJ8t9zyu-0Aj7v-32" value="User Management" style="whiteSpace=wrap;html=1;aspect=fixed;" vertex="1" parent="1">
          <mxGeometry x="-439" y="-400" width="80" height="80" as="geometry" />
        </mxCell>
        <mxCell id="Pe_V_5DJ8t9zyu-0Aj7v-40" style="edgeStyle=orthogonalEdgeStyle;rounded=0;orthogonalLoop=1;jettySize=auto;html=1;entryX=0;entryY=0.5;entryDx=0;entryDy=0;" edge="1" parent="1">
          <mxGeometry relative="1" as="geometry">
            <mxPoint x="-760" y="-454.97142857142853" as="sourcePoint" />
            <mxPoint x="-640" y="-480" as="targetPoint" />
            <Array as="points">
              <mxPoint x="-760" y="-480" />
            </Array>
          </mxGeometry>
        </mxCell>
        <mxCell id="Pe_V_5DJ8t9zyu-0Aj7v-41" value="" style="sketch=0;aspect=fixed;pointerEvents=1;shadow=0;dashed=0;html=1;strokeColor=#9673a6;labelPosition=center;verticalLabelPosition=bottom;verticalAlign=top;align=center;fillColor=#e1d5e7;shape=mxgraph.mscae.enterprise.android_phone" vertex="1" parent="1">
          <mxGeometry x="-800" y="-513.34" width="40" height="66.67" as="geometry" />
        </mxCell>
        <mxCell id="Pe_V_5DJ8t9zyu-0Aj7v-46" value="" style="sketch=0;points=[[0,0,0],[0.25,0,0],[0.5,0,0],[0.75,0,0],[1,0,0],[0,1,0],[0.25,1,0],[0.5,1,0],[0.75,1,0],[1,1,0],[0,0.25,0],[0,0.5,0],[0,0.75,0],[1,0.25,0],[1,0.5,0],[1,0.75,0]];outlineConnect=0;fillColor=#d5e8d4;strokeColor=#82b366;dashed=0;verticalLabelPosition=bottom;verticalAlign=top;align=center;html=1;fontSize=12;fontStyle=0;aspect=fixed;shape=mxgraph.aws4.resourceIcon;resIcon=mxgraph.aws4.api_gateway;strokeWidth=8;" vertex="1" parent="1">
          <mxGeometry x="-639" y="-518" width="78" height="78" as="geometry" />
        </mxCell>
        <mxCell id="Pe_V_5DJ8t9zyu-0Aj7v-49" value="issue" style="whiteSpace=wrap;html=1;" vertex="1" parent="1">
          <mxGeometry x="-299" y="-490.01" width="79" height="20" as="geometry" />
        </mxCell>
        <mxCell id="Pe_V_5DJ8t9zyu-0Aj7v-51" value="verify" style="whiteSpace=wrap;html=1;" vertex="1" parent="1">
          <mxGeometry x="-299" y="-520" width="79" height="20" as="geometry" />
        </mxCell>
        <mxCell id="Pe_V_5DJ8t9zyu-0Aj7v-52" value="claim" style="whiteSpace=wrap;html=1;" vertex="1" parent="1">
          <mxGeometry x="-299" y="-464" width="79" height="20" as="geometry" />
        </mxCell>
        <mxCell id="Pe_V_5DJ8t9zyu-0Aj7v-59" value="crud" style="whiteSpace=wrap;html=1;" vertex="1" parent="1">
          <mxGeometry x="-299" y="-640" width="79" height="20" as="geometry" />
        </mxCell>
        <mxCell id="Pe_V_5DJ8t9zyu-0Aj7v-60" value="search" style="whiteSpace=wrap;html=1;" vertex="1" parent="1">
          <mxGeometry x="-299" y="-610" width="79" height="20" as="geometry" />
        </mxCell>
        <mxCell id="Pe_V_5DJ8t9zyu-0Aj7v-61" value="view" style="whiteSpace=wrap;html=1;" vertex="1" parent="1">
          <mxGeometry x="-299" y="-580" width="79" height="20" as="geometry" />
        </mxCell>
        <mxCell id="Pe_V_5DJ8t9zyu-0Aj7v-64" value="access ctrl" style="whiteSpace=wrap;html=1;" vertex="1" parent="1">
          <mxGeometry x="-299" y="-400" width="79" height="20" as="geometry" />
        </mxCell>
        <mxCell id="Pe_V_5DJ8t9zyu-0Aj7v-65" value="login" style="whiteSpace=wrap;html=1;" vertex="1" parent="1">
          <mxGeometry x="-299" y="-370" width="79" height="20" as="geometry" />
        </mxCell>
        <mxCell id="Pe_V_5DJ8t9zyu-0Aj7v-66" value="onboarding" style="whiteSpace=wrap;html=1;" vertex="1" parent="1">
          <mxGeometry x="-299" y="-340" width="79" height="20" as="geometry" />
        </mxCell>
      </root>
    </mxGraphModel>
  </diagram>
</mxfile>
